# xmcd CD database file
#
# Track frame offsets:
#	150
#	38932
#	77142
#	109133
#	139570
#	192384
#
# Disc length: 2794 seconds
#
# Revision: 0
# Processed by: cddbd v1.5.2PL0 Copyright (c) Steve Scherf et al.
# Submitted via: CDex 1.70beta2
#
DISCID=4c0ae806
DTITLE=Noise of Russia - Humility
DYEAR=2010
DGENRE=Expérimental
TTITLE0=Contemplation
TTITLE1=Hate
TTITLE2=Death always becomes closer
TTITLE3=Image
TTITLE4=Spirit
TTITLE5=Shvetashvatara Upanishad (fragm.)
EXTD=YEAR: 2010
EXTT0=
EXTT1=
EXTT2=
EXTT3=
EXTT4=
EXTT5=
PLAYORDER=
